<svg width="42" height="42" viewBox="0 0 42 42" fill="none" xmlns="http://www.w3.org/2000/svg">
<path d="M3.60503 17.605C4.49753 18.4975 5.91503 18.585 6.87753 17.78C15.05 11.06 26.915 11.06 35.105 17.7625C36.085 18.5675 37.52 18.4975 38.4125 17.605C39.445 16.5725 39.375 14.8575 38.2375 13.93C28.245 5.75753 13.79 5.75753 3.78003 13.93C2.64253 14.84 2.55503 16.555 3.60503 17.605ZM17.185 31.185L19.7575 33.7575C20.44 34.44 21.5425 34.44 22.225 33.7575L24.7975 31.185C25.62 30.3625 25.445 28.945 24.395 28.4025C23.3365 27.859 22.1637 27.5755 20.9738 27.5755C19.7839 27.5755 18.6111 27.859 17.5525 28.4025C16.555 28.945 16.3625 30.3625 17.185 31.185ZM10.6575 24.6575C11.515 25.515 12.8625 25.6025 13.86 24.885C15.9479 23.4078 18.4425 22.6146 21 22.6146C23.5576 22.6146 26.0522 23.4078 28.14 24.885C29.1375 25.585 30.485 25.515 31.3425 24.6575L31.36 24.64C32.41 23.59 32.34 21.805 31.1325 20.9475C25.1125 16.59 16.905 16.59 10.8675 20.9475C9.66003 21.8225 9.59003 23.59 10.6575 24.6575Z" fill="#36BD73"/>
</svg>
